<svg id="svg" version="1.1" xmlns="http://www.w3.org/2000/svg" xmlns:xlink="http://www.w3.org/1999/xlink" width="400" height="400" viewBox="0, 0, 400,400"><g id="svgg"><path id="path0" d="M195.703 53.721 C 195.381 53.784,193.799 54.049,192.188 54.310 C 164.630 58.770,144.895 91.040,142.864 134.961 L 142.773 136.914 109.375 137.109 L 75.977 137.305 73.765 138.391 C 69.922 140.278,67.348 143.957,66.920 148.174 C 66.688 150.457,66.990 155.091,70.527 203.516 C 76.633 287.104,79.755 327.716,80.261 330.145 C 82.371 340.265,90.067 349.527,99.548 353.356 C 105.749 355.861,97.040 355.664,201.563 355.664 L 296.289 355.664 299.805 354.567 C 310.983 351.080,319.094 342.645,322.074 331.410 C 323.000 327.918,336.745 149.900,336.281 147.413 C 335.543 143.465,332.881 139.938,329.313 138.179 L 327.539 137.305 293.848 137.201 L 260.156 137.097 260.152 136.029 C 260.047 108.265,246.193 75.571,229.071 62.685 C 220.013 55.868,205.139 51.872,195.703 53.721 M209.375 70.523 C 228.121 75.436,240.543 97.033,244.130 130.942 C 244.351 133.028,244.531 135.269,244.531 135.922 L 244.531 137.109 201.503 137.109 L 158.475 137.109 158.729 132.715 C 161.190 90.263,182.913 63.587,209.375 70.523 M212.305 172.820 C 226.250 175.316,238.281 181.754,238.281 186.720 C 238.281 191.182,234.473 192.137,228.783 189.102 C 202.550 175.114,176.047 180.814,170.852 201.563 C 167.365 215.486,178.055 226.030,204.492 234.744 C 231.727 243.722,243.442 252.988,246.498 267.969 C 252.704 298.390,224.654 318.786,187.500 310.867 C 172.157 307.597,155.664 298.319,155.664 292.957 C 155.664 287.788,159.785 287.045,165.749 291.140 C 194.897 311.152,235.205 303.525,236.601 277.734 C 237.405 262.884,226.557 253.023,199.666 244.158 C 171.722 234.946,160.563 224.726,159.859 207.698 C 158.873 183.869,183.294 167.628,212.305 172.820 " stroke="none" fill="#fcfbfb" fill-rule="evenodd"></path><path id="path1" d="M0.000 200.000 L 0.000 400.000 200.000 400.000 L 400.000 400.000 400.000 200.000 L 400.000 0.000 200.000 0.000 L 0.000 0.000 0.000 200.000 M210.537 54.123 C 236.855 59.115,257.973 92.237,260.018 131.728 L 260.276 136.698 293.712 136.806 L 327.148 136.914 329.376 138.008 C 333.571 140.068,336.719 144.848,336.719 149.159 C 336.719 152.421,323.073 327.386,322.626 329.858 C 320.614 340.980,311.816 350.836,300.666 354.458 C 295.015 356.294,294.674 356.300,198.242 356.174 L 107.227 356.055 104.102 355.170 C 87.283 350.406,80.421 340.237,78.733 317.578 C 70.006 200.438,66.788 155.840,66.712 150.977 C 66.610 144.527,68.975 140.379,74.133 137.961 L 76.367 136.914 109.473 136.808 L 142.578 136.702 142.584 135.636 C 142.688 117.777,149.559 92.767,158.166 78.922 C 170.461 59.142,189.492 50.131,210.537 54.123 M197.903 69.945 C 175.783 72.513,162.270 94.592,158.767 133.887 L 158.514 136.719 201.444 136.719 L 244.374 136.719 244.273 135.449 C 241.388 99.476,229.193 76.433,210.144 70.961 C 208.336 70.442,201.426 69.427,200.781 69.586 C 200.674 69.612,199.378 69.774,197.903 69.945 M195.313 172.296 C 164.388 175.138,148.996 206.822,168.581 227.322 C 175.276 234.329,184.434 239.261,199.166 243.792 C 224.825 251.685,236.877 262.094,236.884 276.367 C 236.896 303.356,196.219 311.837,165.477 291.256 C 159.527 287.273,155.859 288.068,155.859 293.340 C 155.859 298.261,174.019 308.020,188.536 310.900 C 221.880 317.515,246.562 302.683,246.655 275.977 C 246.727 255.450,236.459 245.571,203.745 234.691 C 174.852 225.081,164.591 212.570,172.481 196.569 C 180.848 179.600,203.308 176.250,227.622 188.346 C 233.787 191.413,234.893 191.563,236.861 189.595 C 239.254 187.202,238.493 184.171,234.883 181.721 C 224.810 174.885,208.754 171.061,195.313 172.296 " stroke="none" fill="#fc5424" fill-rule="evenodd"></path><path id="path2" d="M199.126 53.401 C 199.612 53.495,200.315 53.491,200.688 53.393 C 201.062 53.296,200.664 53.219,199.805 53.224 C 198.945 53.228,198.640 53.308,199.126 53.401 M202.441 53.394 C 202.817 53.493,203.433 53.493,203.809 53.394 C 204.185 53.296,203.877 53.216,203.125 53.216 C 202.373 53.216,202.065 53.296,202.441 53.394 M142.669 133.984 C 142.669 134.736,142.749 135.044,142.847 134.668 C 142.946 134.292,142.946 133.677,142.847 133.301 C 142.749 132.925,142.669 133.232,142.669 133.984 M179.755 137.012 C 191.501 137.069,210.837 137.069,222.724 137.012 C 234.611 136.954,225.000 136.907,201.367 136.907 C 177.734 136.907,168.009 136.954,179.755 137.012 M66.505 149.805 C 66.509 150.664,66.589 150.970,66.683 150.484 C 66.776 149.998,66.772 149.295,66.675 148.921 C 66.577 148.548,66.500 148.945,66.505 149.805 M201.270 172.155 C 201.860 172.244,202.827 172.244,203.418 172.155 C 204.009 172.065,203.525 171.992,202.344 171.992 C 201.162 171.992,200.679 172.065,201.270 172.155 M200.488 181.129 C 200.864 181.227,201.479 181.227,201.855 181.129 C 202.231 181.030,201.924 180.950,201.172 180.950 C 200.420 180.950,200.112 181.030,200.488 181.129 M247.006 275.391 C 247.006 277.002,247.075 277.661,247.160 276.855 C 247.244 276.050,247.244 274.731,247.160 273.926 C 247.075 273.120,247.006 273.779,247.006 275.391 M313.452 346.582 L 312.305 347.852 313.574 346.704 C 314.272 346.073,314.844 345.502,314.844 345.435 C 314.844 345.133,314.521 345.399,313.452 346.582 M155.176 356.152 C 180.259 356.208,221.304 356.208,246.387 356.152 C 271.470 356.097,250.947 356.051,200.781 356.051 C 150.615 356.051,130.093 356.097,155.176 356.152 " stroke="none" fill="#fc916f" fill-rule="evenodd"></path><path id="path3" d="M94.434 137.012 C 103.296 137.070,117.798 137.070,126.660 137.012 C 135.522 136.953,128.271 136.905,110.547 136.905 C 92.822 136.905,85.571 136.953,94.434 137.012 M276.270 137.012 C 285.239 137.070,299.917 137.070,308.887 137.012 C 317.856 136.953,310.518 136.905,292.578 136.905 C 274.639 136.905,267.300 136.953,276.270 137.012 " stroke="none" fill="#fcac94" fill-rule="evenodd"></path><path id="path4" d="M175.781 219.653 C 175.781 219.721,176.353 220.292,177.051 220.923 L 178.320 222.070 177.173 220.801 C 176.104 219.617,175.781 219.352,175.781 219.653 " stroke="none" fill="#fcac8c" fill-rule="evenodd"></path></g></svg>